<svg width="110" height="110" viewBox="0 0 110 110" fill="none" xmlns="http://www.w3.org/2000/svg">
<path d="M23.418 86.582C19.4648 82.6289 22.0859 74.3359 20.0664 69.4805C18.0469 64.625 10.3125 60.3711 10.3125 55C10.3125 49.6289 17.9609 45.5469 20.0664 40.5195C22.1719 35.4922 19.4648 27.3711 23.418 23.418C27.3711 19.4648 35.6641 22.0859 40.5195 20.0664C45.375 18.0469 49.6289 10.3125 55 10.3125C60.3711 10.3125 64.4531 17.9609 69.4805 20.0664C74.5078 22.1719 82.6289 19.4648 86.582 23.418C90.5352 27.3711 87.9141 35.6641 89.9336 40.5195C91.9531 45.375 99.6875 49.6289 99.6875 55C99.6875 60.3711 92.0391 64.4531 89.9336 69.4805C87.8281 74.5078 90.5352 82.6289 86.582 86.582C82.6289 90.5352 74.3359 87.9141 69.4805 89.9336C64.625 91.9531 60.3711 99.6875 55 99.6875C49.6289 99.6875 45.5469 92.0391 40.5195 89.9336C35.4922 87.8281 27.3711 90.5352 23.418 86.582Z" stroke="#BABABA" stroke-width="4" stroke-linecap="round" stroke-linejoin="round"/>
<path d="M73.9062 44.6875L48.6836 68.75L36.0938 56.7188" stroke="#BABABA" stroke-width="4" stroke-linecap="round" stroke-linejoin="round"/>
</svg>
