<svg width="110" height="110" viewBox="0 0 110 110" fill="none" xmlns="http://www.w3.org/2000/svg">
<path d="M54.9999 17.6343C49.1322 17.6327 43.4907 19.8978 39.2533 23.9567C35.016 28.0156 32.5104 33.5545 32.2598 39.4168C32.0092 45.2792 34.0328 51.0117 37.9083 55.4175C41.7837 59.8233 47.2113 62.5616 53.0577 63.0608C53.7108 63.1124 54.3467 63.1468 54.9999 63.1468C55.5842 63.1468 56.1858 63.1124 56.7702 63.0608H56.9421V63.0436C62.7863 62.5445 68.2117 59.8071 72.0856 55.4029C75.9595 50.9988 77.9823 45.2684 77.7317 39.4082C77.4811 33.5481 74.9763 28.0114 70.7405 23.9541C66.5047 19.8967 60.8653 17.6326 54.9999 17.6343ZM71.8608 49.8093C71.8563 49.8093 71.8519 49.8111 71.8487 49.8143C71.8454 49.8175 71.8436 49.8219 71.8436 49.8265C70.3062 52.5818 68.1146 54.9166 65.462 56.625C62.8093 58.3335 59.7772 59.3632 56.6327 59.6233L56.6155 59.6405H56.5983C55.5235 59.7464 54.4407 59.7406 53.3671 59.6233C49.2123 59.2693 45.2838 57.5801 42.1688 54.8081C39.0538 52.0362 36.9196 48.3305 36.0853 44.2451C35.2511 40.1596 35.7615 35.9139 37.5404 32.1426C39.3192 28.3713 42.2709 25.2771 45.9542 23.3225C49.6375 21.3679 53.8544 20.6579 57.9747 21.2987C62.0949 21.9396 65.897 23.8968 68.8127 26.8777C71.7283 29.8586 73.6008 33.7032 74.1502 37.8366C74.6997 41.97 73.8965 46.1702 71.8608 49.8093Z" fill="#D9D9D9"/>
<path d="M101.2 90.6296L94.7375 80.6093C90.114 73.4764 85.4963 66.3322 80.8843 59.1764C81.2453 59.0389 81.6578 58.8843 82.0703 58.7468C83.0018 58.5602 83.887 58.1907 84.6748 57.6596C85.4625 57.1286 86.137 56.4465 86.6593 55.653C86.9514 54.7557 87.0638 53.8096 86.99 52.8688C86.9163 51.9281 86.6579 51.0111 86.2297 50.1702C85.8257 49.2906 85.6091 48.3365 85.5937 47.3686C86.0194 46.5414 86.6103 45.8102 87.3297 45.2202C88.0948 44.6408 88.7377 43.9158 89.2215 43.0869C89.7052 42.258 90.0203 41.3416 90.1484 40.3905C90.0221 39.4412 89.7078 38.5266 89.2238 37.7003C88.7398 36.874 88.0959 36.1525 87.3297 35.578C86.6129 34.9786 86.0227 34.2424 85.5937 33.4124C85.6091 32.4445 85.8257 31.4905 86.2297 30.6108C86.6576 29.7729 86.9159 28.8588 86.9896 27.9209C87.0633 26.9829 86.9511 26.0396 86.6593 25.1452C86.1355 24.353 85.4606 23.6719 84.6731 23.1411C83.8856 22.6102 83.0011 22.2399 82.0703 22.0514C81.1446 21.8173 80.2743 21.4026 79.5093 20.8311C79.129 19.9565 78.919 19.0173 78.8906 18.0639C78.9165 17.1167 78.7552 16.1737 78.416 15.2889C78.0769 14.4041 77.5664 13.5949 76.914 12.9077C75.2713 11.9406 73.3126 11.6625 71.4656 12.1343C70.5301 12.3273 69.5651 12.3273 68.6297 12.1343C67.9097 11.5312 67.3192 10.7887 66.8937 9.95144C66.5029 9.07435 65.9414 8.28378 65.2421 7.62576C64.5428 6.96774 63.7195 6.45542 62.8203 6.11863C61.8891 6.03857 60.9512 6.14311 60.0605 6.42626C59.1698 6.7094 58.3437 7.16558 57.6297 7.76863C56.8489 8.36364 55.9536 8.79081 55 9.02332C54.0463 8.79081 53.151 8.36364 52.3703 7.76863C51.6588 7.1669 50.8357 6.71143 49.9479 6.4283C49.0602 6.14517 48.1253 6.03993 47.1968 6.11863C46.2939 6.45246 45.4668 6.96352 44.7643 7.62176C44.0618 8.27999 43.498 9.07209 43.1062 9.95144C42.68 10.7835 42.0963 11.5248 41.3875 12.1343C40.4462 12.3271 39.4756 12.3271 38.5343 12.1343C36.693 11.6623 34.7395 11.9405 33.1031 12.9077C32.4434 13.5941 31.9272 14.4052 31.5849 15.2935C31.2425 16.1818 31.0809 17.1295 31.1093 18.0811C31.0918 19.0322 30.8752 19.969 30.4734 20.8311C29.7241 21.4035 28.8635 21.8133 27.9468 22.0343C26.0625 22.4153 24.4061 23.5278 23.3406 25.128C23.0485 26.0253 22.9362 26.9714 23.0099 27.9122C23.0836 28.8529 23.342 29.7699 23.7703 30.6108C24.1743 31.4905 24.3908 32.4445 24.4062 33.4124C23.9772 34.2424 23.3871 34.9786 22.6703 35.578C21.9041 36.1525 21.2601 36.874 20.7761 37.7003C20.2921 38.5266 19.9778 39.4412 19.8515 40.3905C19.9797 41.3416 20.2947 42.258 20.7785 43.0869C21.2622 43.9158 21.9052 44.6408 22.6703 45.2202C23.3897 45.8102 23.9805 46.5414 24.4062 47.3686C24.3908 48.3365 24.1743 49.2906 23.7703 50.1702C23.3423 51.0081 23.0841 51.9222 23.0103 52.8602C22.9366 53.7981 23.0488 54.7414 23.3406 55.6358C23.8602 56.4317 24.534 57.1156 25.3222 57.6469C26.1103 58.1782 26.9969 58.5464 27.9297 58.7296C28.325 58.8843 28.7375 59.0218 29.1156 59.1764C24.4922 66.3264 19.8744 73.4707 15.2625 80.6093L8.79997 90.6296C8.61356 90.9103 8.51556 91.2405 8.51862 91.5775C8.52169 91.9145 8.62567 92.2429 8.81715 92.5202C9.00389 92.7974 9.26799 93.0137 9.57664 93.142C9.88528 93.2704 10.2248 93.3052 10.5531 93.2421L22.2922 91.0593L25.1453 102.678C25.2281 103.003 25.404 103.296 25.6514 103.522C25.8987 103.748 26.2067 103.897 26.5375 103.95C26.6279 103.97 26.7199 103.981 26.8125 103.984C27.1005 103.986 27.3843 103.915 27.6369 103.776C27.8895 103.638 28.1027 103.437 28.2562 103.194L46.7843 74.5077C46.9218 74.5421 47.0422 74.628 47.1797 74.6624C47.4612 74.7295 47.7496 74.7641 48.039 74.7655C49.6168 74.5916 51.1158 73.9849 52.3703 73.0124C53.151 72.4174 54.0463 71.9902 55 71.7577C55.9536 71.9902 56.8489 72.4174 57.6297 73.0124C58.3442 73.6202 59.1729 74.0792 60.0672 74.3626C60.9614 74.6459 61.9033 74.7478 62.8375 74.6624C62.975 74.628 63.0953 74.5421 63.2156 74.5077L81.7437 103.194C81.8972 103.437 82.1104 103.638 82.363 103.776C82.6157 103.915 82.8994 103.986 83.1875 103.984C83.28 103.981 83.3721 103.97 83.4625 103.95C83.7932 103.897 84.1012 103.748 84.3486 103.522C84.5959 103.296 84.7718 103.003 84.8547 102.678L87.7078 91.0593L99.4468 93.2421C99.775 93.3033 100.114 93.2677 100.422 93.1395C100.731 93.0113 100.995 92.7961 101.183 92.5202C101.374 92.2429 101.478 91.9145 101.481 91.5775C101.484 91.2405 101.386 90.9103 101.2 90.6296ZM27.5343 97.9686L25.2484 88.6702C25.1457 88.2436 24.8838 87.8725 24.5163 87.6329C24.1488 87.3932 23.7036 87.3031 23.2718 87.3811L13.8531 89.1343L18.15 82.4827C22.4468 75.8139 26.7552 69.1452 31.075 62.4764C31.0937 62.5554 31.1052 62.636 31.1093 62.7171C31.0835 63.6643 31.2447 64.6073 31.5839 65.4921C31.9231 66.3769 32.4335 67.1861 33.0859 67.8733C34.729 68.8395 36.6873 69.1175 38.5343 68.6468C39.4698 68.4537 40.4348 68.4537 41.3703 68.6468C42.0943 69.2459 42.6855 69.9893 43.1062 70.8296C43.4328 71.328 43.7593 71.8264 44.1031 72.3077L27.5343 97.9686ZM62.5625 70.9671C62.4236 71.1247 62.2458 71.2432 62.0468 71.3108C61.5656 71.4139 60.2937 70.6405 59.4687 70.1077C58.1764 69.1042 56.6278 68.4848 55 68.3202C53.3721 68.4848 51.8235 69.1042 50.5312 70.1077C49.7062 70.6405 48.4343 71.4311 47.9703 71.328C47.7596 71.2473 47.571 71.1177 47.4203 70.9499C46.888 70.3542 46.4213 69.7031 46.0281 69.0077C45.3169 67.5891 44.2286 66.3938 42.8828 65.553C42.1015 65.1973 41.2486 65.0268 40.3906 65.0546C39.6431 65.0691 38.8971 65.1265 38.1562 65.2264C37.0906 65.3468 35.6468 65.5186 35.2343 65.1921C34.8218 64.8655 34.65 63.4046 34.5297 62.3389C34.5087 60.7295 34.0384 59.1579 33.1718 57.8014C33.0351 57.6298 32.8794 57.4742 32.7078 57.3374C32.6422 57.2817 32.5733 57.2301 32.5015 57.1827L32.4843 57.1655H32.4672C31.4396 56.4141 30.2876 55.8497 29.064 55.4983C28.05 55.1374 26.675 54.6561 26.4343 54.1405C26.1937 53.6593 26.675 52.3014 27.0187 51.3046C27.7072 49.8429 27.9636 48.2149 27.7578 46.6124C27.253 45.1071 26.3288 43.7773 25.0937 42.7796C24.3375 42.0233 23.289 40.9749 23.289 40.3905C23.289 39.8061 24.3375 38.7577 25.0937 38.0014C26.3288 37.0037 27.253 35.6739 27.7578 34.1686C27.9636 32.5661 27.7072 30.9381 27.0187 29.4764C26.675 28.4796 26.1937 27.1218 26.4343 26.6233C26.675 26.1249 28.0672 25.6436 29.0812 25.2827C30.6306 24.9184 32.0438 24.1194 33.1547 22.9796C34.034 21.6345 34.5111 20.0662 34.5297 18.4593C34.65 17.3936 34.8047 15.9499 35.2343 15.6061C35.664 15.2624 37.0906 15.4343 38.1562 15.5546C39.7313 15.8901 41.3688 15.777 42.8828 15.228C44.2327 14.3921 45.3221 13.1955 46.0281 11.7733C46.5953 10.8452 47.3859 9.59051 47.9531 9.47019C48.4343 9.34988 49.7062 10.1577 50.5312 10.6733C51.8235 11.6768 53.3721 12.2962 55 12.4608C56.6278 12.2962 58.1764 11.6768 59.4687 10.6733C60.2937 10.1577 61.5484 9.36707 62.0468 9.47019C62.614 9.59051 63.4047 10.8452 63.9718 11.7733C64.6778 13.1955 65.7672 14.3921 67.1172 15.228C68.6311 15.777 70.2687 15.8901 71.8437 15.5546C72.9093 15.4343 74.3531 15.2624 74.7656 15.5889C75.1781 15.9155 75.35 17.3764 75.4703 18.4421C75.4912 20.0515 75.9615 21.6231 76.8281 22.9796C77.9554 24.1193 79.3778 24.9227 80.9359 25.2999C81.95 25.6436 83.325 26.1249 83.5656 26.6405C83.8062 27.1218 83.325 28.4796 82.9812 29.4764C82.2927 30.9381 82.0363 32.5661 82.2422 34.1686C82.7469 35.6739 83.6712 37.0037 84.9062 38.0014C85.6625 38.7577 86.7109 39.8061 86.7109 40.3905C86.7109 40.9749 85.6625 42.0233 84.9062 42.7796C83.6712 43.7773 82.7469 45.1071 82.2422 46.6124C82.0363 48.2149 82.2927 49.8429 82.9812 51.3046C83.325 52.3014 83.8062 53.6593 83.5656 54.1577C83.325 54.6561 81.9328 55.1546 80.9359 55.4983C79.6488 55.85 78.4411 56.4451 77.3781 57.2514C77.1876 57.4218 77.0095 57.6056 76.8453 57.8014C75.9659 59.1466 75.4889 60.7148 75.4703 62.3218C75.35 63.3874 75.1953 64.8311 74.7656 65.1749C74.3359 65.5186 72.9093 65.3468 71.8437 65.2264C70.2693 64.8823 68.6293 64.9956 67.1172 65.553C65.7713 66.3938 64.6831 67.5891 63.9718 69.0077C63.5746 69.7101 63.102 70.3671 62.5625 70.9671ZM86.7281 87.3811C86.2963 87.3031 85.8511 87.3932 85.4836 87.6329C85.1161 87.8725 84.8542 88.2436 84.7515 88.6702L82.4656 97.9686L65.8968 72.3077C66.2406 71.8264 66.5672 71.328 66.8937 70.8296C67.3149 69.9944 67.8994 69.2521 68.6125 68.6468C69.5537 68.4539 70.5243 68.4539 71.4656 68.6468C73.307 69.1187 75.2604 68.8405 76.8968 67.8733C77.555 67.1894 78.0703 66.3811 78.4126 65.4958C78.7549 64.6105 78.9174 63.6659 78.8906 62.7171C78.8936 62.6359 78.9051 62.5552 78.925 62.4764C83.239 69.1452 87.5474 75.8139 91.85 82.4827L96.1468 89.1343L86.7281 87.3811Z" fill="#D9D9D9"/>
</svg>
