<svg width="110" height="110" viewBox="0 0 110 110" fill="none" xmlns="http://www.w3.org/2000/svg">
<path d="M28.7376 105.371C33.5724 105.371 37.4917 101.451 37.4917 96.6167C37.4917 91.7819 33.5724 87.8625 28.7376 87.8625C23.9028 87.8625 19.9834 91.7819 19.9834 96.6167C19.9834 101.451 23.9028 105.371 28.7376 105.371Z" stroke="#191919" stroke-width="5" stroke-miterlimit="10"/>
<path d="M81.263 105.371C86.0977 105.371 90.0171 101.452 90.0171 96.6167C90.0171 91.7819 86.0977 87.8625 81.263 87.8625C76.4282 87.8625 72.5088 91.7819 72.5088 96.6167C72.5088 101.452 76.4282 105.371 81.263 105.371Z" stroke="#191919" stroke-width="5" stroke-miterlimit="10"/>
<path d="M90.0171 96.6166H103.125V70.3541L96.2505 41.9374C95.7701 40.0087 94.6444 38.3023 93.0602 37.1017C91.4761 35.9011 89.5289 35.2785 87.5421 35.3374H72.5088V96.6166" stroke="#191919" stroke-width="5" stroke-miterlimit="10"/>
<path d="M37.4917 96.6166H72.5083V74.7083H6.875V96.6166H19.9833" stroke="#191919" stroke-width="5" stroke-miterlimit="10"/>
<path d="M72.5083 17.8292H6.875V74.7083H72.5083V17.8292Z" stroke="#191919" stroke-width="5" stroke-miterlimit="10"/>
<path d="M72.5088 61.6H81.263L90.0171 70.3541H103.125" stroke="#191919" stroke-width="5" stroke-miterlimit="10"/>
</svg>
