<svg width="16" height="16" viewBox="0 0 16 16" fill="none" xmlns="http://www.w3.org/2000/svg">
<path d="M15.5663 7.18484C15.3047 2.86912 11.2506 -0.456965 6.58113 0.287124C3.36556 0.800546 0.788483 3.32301 0.288454 6.4333C-0.00387064 8.234 0.380767 9.93797 1.21928 11.3443L1.72996 12.0881C2.1146 12.8321 2.49923 12.8321 2.88387 13.3579L3.98867 14.0453C5.1272 14.6927 6.45805 15.0647 7.88121 15.0647C12.2199 15.0647 15.8201 11.3666 15.5663 7.18484ZM11.643 10.3919C11.4574 10.76 11.1405 11.0507 10.7506 11.2104C10.5198 11.3071 10.266 11.3517 9.99671 11.3517C9.60438 11.3517 9.18128 11.2624 8.74279 11.0764C8.27546 10.8779 7.83181 10.631 7.41964 10.3398C6.97346 10.0273 6.55805 9.67754 6.15803 9.29805C5.758 8.91112 5.40414 8.50187 5.08104 8.07774C4.76564 7.65361 4.51178 7.22948 4.32715 6.80535C4.14253 6.38122 4.05021 5.97197 4.05021 5.58504C4.05021 5.33205 4.09637 5.0865 4.18868 4.86328C4.281 4.63261 4.42716 4.42426 4.63486 4.23824C4.88103 4.00013 5.15028 3.88852 5.43491 3.88852C5.54261 3.88852 5.65031 3.91084 5.75031 3.95549C5.85032 4.00013 5.94263 4.0671 6.01187 4.16383L6.90423 5.38414C6.97346 5.48087 7.02731 5.56272 7.05808 5.64457C7.09654 5.72642 7.11193 5.80083 7.11193 5.87524C7.11193 5.96453 7.08116 6.05382 7.02731 6.14311C6.97346 6.2324 6.90423 6.32169 6.81191 6.41098L6.51959 6.70862C6.47343 6.75326 6.45805 6.79791 6.45805 6.85744C6.45805 6.8872 6.46574 6.91696 6.47343 6.94673C6.48882 6.97649 6.49651 6.99881 6.5042 7.02114C6.57344 7.14763 6.69652 7.30389 6.86576 7.49735C7.22592 7.90673 7.61952 8.28744 8.04275 8.63581C8.24277 8.79951 8.41201 8.91112 8.54278 8.97809C8.56586 8.98553 8.58894 9.00041 8.61202 9.00786C8.64279 9.02274 8.67356 9.02274 8.71202 9.02274C8.78126 9.02274 8.82741 9.00041 8.87357 8.95577L9.1659 8.67301C9.2659 8.57628 9.35822 8.50932 9.44284 8.46467C9.53515 8.41258 9.61977 8.38282 9.71977 8.38282C9.7967 8.38282 9.87363 8.3977 9.95825 8.43491C10.0429 8.47211 10.1352 8.51676 10.2275 8.58372L11.5045 9.46175C11.6045 9.52872 11.6737 9.61057 11.7199 9.69986C11.7584 9.79659 11.7814 9.88588 11.7814 9.99005C11.7353 10.1165 11.7045 10.2579 11.643 10.3919Z" fill="#EFEFEF"/>
</svg>
