<svg width="51" height="29" viewBox="0 0 51 29" fill="none" xmlns="http://www.w3.org/2000/svg">
<path fill-rule="evenodd" clip-rule="evenodd" d="M1.41529 1.15481C2.63568 0.503938 4.61432 0.503938 5.83471 1.15481L25.5 11.643L45.1653 1.15481C46.3857 0.503938 48.3643 0.503938 49.5847 1.15481C50.8051 1.80569 50.8051 2.86096 49.5847 3.51183L27.7097 15.1785C26.4893 15.8294 24.5107 15.8294 23.2903 15.1785L1.41529 3.51183C0.194903 2.86096 0.194903 1.80569 1.41529 1.15481ZM1.41529 14.4881C2.63568 13.8373 4.61432 13.8373 5.83471 14.4881L25.5 24.9763L45.1653 14.4881C46.3857 13.8373 48.3643 13.8373 49.5847 14.4881C50.8051 15.139 50.8051 16.1943 49.5847 16.8452L27.7097 28.5118C26.4893 29.1627 24.5107 29.1627 23.2903 28.5118L1.41529 16.8452C0.194903 16.1943 0.194903 15.139 1.41529 14.4881Z" fill="white"/>
</svg>
