<svg width="109" height="108" viewBox="0 0 109 108" fill="none" xmlns="http://www.w3.org/2000/svg">
<path d="M79.2292 22.1054V76.8175L86.5822 84.8601L93.9351 76.8175V22.1054H79.2292ZM79.2292 16.7828H93.9351V6.21598H79.2292V16.7828ZM98.8371 27.428V77.9141C98.8371 78.6166 98.5813 79.2905 98.1255 79.789L88.3216 90.5125C87.363 91.5611 85.8013 91.5611 84.8427 90.5125L75.0388 79.789C74.583 79.2905 74.3273 78.6166 74.3273 77.9141V64.686H71.8763C67.8154 64.686 64.5233 61.1115 64.5233 56.7022V40.7344C64.5233 36.325 67.8154 32.7505 71.8763 32.7505H74.3273V27.428H25.3077V67.3473C25.3077 68.8171 24.2103 70.0086 22.8567 70.0086H20.4057C12.2839 70.0086 5.69981 77.1576 5.69981 85.9763C5.69981 94.7951 12.2839 101.944 20.4057 101.944H103.739V27.428H98.8371ZM98.8371 22.1054H106.19C107.544 22.1054 108.641 23.2969 108.641 24.7667V104.605C108.641 106.075 107.544 107.267 106.19 107.267H20.4057C9.57658 107.267 0.797852 97.7347 0.797852 85.9763V24.7667C0.797852 11.5386 10.6739 0.815063 22.8567 0.815063C24.2103 0.815063 25.3077 2.00656 25.3077 3.47635V22.1054H74.3273V3.55469C74.3273 2.0849 75.4246 0.893404 76.7782 0.893404H96.3861C97.7397 0.893404 98.8371 2.0849 98.8371 3.55469V22.1054ZM74.3273 38.0731H71.8763C70.5226 38.0731 69.4253 39.2646 69.4253 40.7344V56.7022C69.4253 58.1719 70.5226 59.3634 71.8763 59.3634H74.3273V38.0731ZM5.69981 71.8937C9.29268 67.4737 14.5494 64.686 20.4057 64.686V6.3263C12.0912 7.61764 5.69981 15.3817 5.69981 24.7667V71.8937ZM37.5626 32.7505H52.2684C56.3294 32.7505 59.6214 36.325 59.6214 40.7344V56.7022C59.6214 61.1115 56.3294 64.686 52.2684 64.686H37.5626C33.5016 64.686 30.2096 61.1115 30.2096 56.7022V40.7344C30.2096 36.325 33.5016 32.7505 37.5626 32.7505ZM37.5626 38.0731C36.2089 38.0731 35.1116 39.2646 35.1116 40.7344V56.7022C35.1116 58.1719 36.2089 59.3634 37.5626 59.3634H52.2684C53.6221 59.3634 54.7194 58.1719 54.7194 56.7022V40.7344C54.7194 39.2646 53.6221 38.0731 52.2684 38.0731H37.5626ZM32.6606 80.6538C31.307 80.6538 30.2096 79.4623 30.2096 77.9925C30.2096 76.5227 31.307 75.3312 32.6606 75.3312H66.9743C68.328 75.3312 69.4253 76.5227 69.4253 77.9925C69.4253 79.4623 68.328 80.6538 66.9743 80.6538H32.6606ZM32.6606 91.2989C31.307 91.2989 30.2096 90.1074 30.2096 88.6376C30.2096 87.1678 31.307 85.9763 32.6606 85.9763H71.8763C73.2299 85.9763 74.3273 87.1678 74.3273 88.6376C74.3273 90.1074 73.2299 91.2989 71.8763 91.2989H32.6606Z" fill="#191919"/>
</svg>
